<?xml version="1.0" standalone="no"?>
<!DOCTYPE svg PUBLIC "-//W3C//DTD SVG 20010904//EN"
 "http://www.w3.org/TR/2001/REC-SVG-20010904/DTD/svg10.dtd">
<svg version="1.0" xmlns="http://www.w3.org/2000/svg"
 width="554.000000pt" height="554.000000pt" viewBox="0 0 554.000000 554.000000"
 preserveAspectRatio="xMidYMid meet">
<metadata>
Created by potrace 1.14, written by Peter Selinger 2001-2017
</metadata>
<g transform="translate(0.000000,554.000000) scale(0.100000,-0.100000)"
fill="#000000" stroke="none">
<path d="M2030 5263 c-119 -20 -242 -88 -294 -161 -38 -54 -47 -141 -21 -208
9 -25 16 -47 14 -48 -2 -2 -35 -18 -74 -36 -186 -86 -381 -226 -529 -377 l-90
-92 -28 97 c-32 112 -68 169 -122 196 -71 35 -134 -3 -167 -99 -19 -57 -16
-315 6 -430 9 -49 20 -116 26 -147 l9 -57 -81 -78 c-141 -134 -221 -247 -325
-455 -131 -262 -221 -587 -244 -883 -27 -342 22 -629 157 -915 92 -195 204
-351 359 -500 90 -86 232 -201 292 -235 31 -19 32 -21 32 -85 0 -36 -4 -71 -9
-79 -7 -10 -66 -19 -222 -32 -361 -30 -580 -60 -606 -81 -7 -5 -17 -6 -24 -2
-7 4 -10 2 -7 -7 11 -32 231 -45 793 -47 242 0 505 3 585 6 139 7 150 6 250
-21 58 -16 148 -37 200 -48 52 -11 149 -37 215 -59 167 -56 303 -80 480 -87
154 -6 331 10 475 42 36 8 112 20 170 25 545 54 772 98 1030 197 681 263 1068
779 1141 1523 18 182 6 531 -25 715 -71 418 -158 696 -331 1050 -190 390 -404
630 -680 765 -170 84 -309 117 -524 125 -67 2 -127 8 -133 11 -7 4 -40 29 -75
55 -78 58 -220 132 -315 165 -38 13 -127 36 -196 51 -118 25 -144 27 -379 27
-249 1 -252 1 -257 22 -10 37 -92 119 -148 147 -97 48 -223 68 -328 50z"/>
</g>
</svg>
